#N canvas 0 23 538 477 12;
#X obj 208 230 f;
#X obj 176 288 list split 1;
#X obj 176 312 - 1;
#X obj 176 336 list;
#X msg 130 128 \$1 -1;
#X obj 203 83 t f f f;
#X obj 130 177 route 0;
#X obj 331 28 inlet;
#X obj 130 153 text get;
#X obj 208 253 text delete;
#X obj 212 396 text insert;
#X obj 130 437 outlet;
#X obj 203 9 inlet;
#X msg 130 361 -1;
#X obj 267 57 f \$1;
#X obj 203 57 f;
#X obj 331 113 t a a a b;
#X obj 331 52 symbol;
#X obj 203 33 bang;
#X obj 176 205 t a b a, f 12;
#X connect 0 0 9 0;
#X connect 1 0 2 0;
#X connect 1 1 3 1;
#X connect 2 0 3 0;
#X connect 3 0 10 0;
#X connect 4 0 8 0;
#X connect 5 0 4 0;
#X connect 5 1 0 1;
#X connect 5 2 10 1;
#X connect 6 0 13 0;
#X connect 6 1 19 0;
#X connect 7 0 17 0;
#X connect 8 0 6 0;
#X connect 12 0 18 0;
#X connect 13 0 11 0;
#X connect 14 0 15 1;
#X connect 15 0 5 0;
#X connect 16 0 8 3;
#X connect 16 1 9 1;
#X connect 16 2 10 2;
#X connect 16 3 14 0;
#X connect 17 0 16 0;
#X connect 18 0 15 0;
#X connect 19 0 1 0;
#X connect 19 1 0 0;
#X connect 19 2 11 0;
