#N canvas 539 50 465 300 12;
#N canvas 0 23 450 300 texts 0;
#X obj 28 67 text define word;
#X obj 12 15 loadbang;
#X obj 26 210 text define preps;
#X obj 12 266 text define iverb;
#X msg 26 186 read -c ../getwiki/preps;
#X msg 12 242 read -c ../getwiki/iverbs;
#X msg 220 65 \; pd-_getword_ clear \, obj 10 10 r _getword \, obj
10 40 clone _getword \$1 \, obj 10 80 s _gotword \, connect 0 0 1 0
\, connect 1 0 2 0 \; _getword_ptr symbol word, f 26;
#X obj 220 42 text size word;
#X obj 103 114 b;
#X msg 28 43 read -c litrev-freq \, bang;
#X connect 0 0 8 0;
#X connect 1 0 9 0;
#X connect 1 0 4 0;
#X connect 1 0 5 0;
#X connect 4 0 2 0;
#X connect 5 0 3 0;
#X connect 7 0 6 0;
#X connect 8 0 7 0;
#X connect 9 0 0 0;
#X restore 278 56 pd texts;
#N canvas 546 389 738 496 check 0;
#X obj 511 182 list split 1;
#X floatatom 364 29 5 0 0 0 - - -, f 5;
#X obj 364 76 s _getword;
#X obj 511 150 r _gotword;
#X msg 364 52 \$1 bang;
#X obj 551 205 list split 1;
#X obj 551 230 sel -1;
#X obj 551 254 bng 15 250 50 0 empty empty empty 17 7 0 10 -262144
-1 -1;
#X obj 496 231 print;
#X obj 191 176 text search preps;
#X obj 191 200 != -1;
#X obj 326 200 != -1;
#X obj 326 176 text search iverb;
#X obj 143 228 list;
#X obj 110 103 route float symbol;
#X obj 168 129 t a a a;
#X floatatom 70 26 5 0 0 0 - - -, f 5;
#X obj 70 49 text get word;
#X obj 70 74 list split 1;
#X obj 191 224 change;
#X obj 326 224 change;
#X msg 246 246 set -1;
#X msg 380 248 set -1;
#X obj 325 250 t f b;
#X obj 191 248 t f b;
#X obj 191 272;
#X connect 0 0 8 0;
#X connect 0 1 5 0;
#X connect 1 0 4 0;
#X connect 3 0 0 0;
#X connect 4 0 2 0;
#X connect 5 0 6 0;
#X connect 6 0 7 0;
#X connect 9 0 10 0;
#X connect 10 0 19 0;
#X connect 11 0 20 0;
#X connect 12 0 11 0;
#X connect 14 1 15 0;
#X connect 15 0 13 1;
#X connect 15 1 9 0;
#X connect 15 2 12 0;
#X connect 16 0 17 0;
#X connect 17 0 18 0;
#X connect 18 1 14 0;
#X connect 19 0 24 0;
#X connect 20 0 23 0;
#X connect 21 0 20 0;
#X connect 22 0 19 0;
#X connect 23 1 22 0;
#X connect 24 0 25 0;
#X connect 24 1 21 0;
#X restore 277 80 pd check;
#N canvas 0 22 450 300 _getword_ 0;
#X obj 10 10 r _getword;
#X obj 10 40 clone _getword 5497;
#X obj 10 80 s _gotword;
#X connect 0 0 1 0;
#X connect 1 0 2 0;
#X restore 277 105 pd _getword_;
