#N canvas 539 50 465 300 12;
#N canvas 203 80 564 498 getword 0;
#X msg 270 111 all word;
#X msg 140 44 0 bang;
#X msg 291 188 bang;
#X obj 291 212 text size word;
#X floatatom 291 236 5 0 0 0 - - -, f 5;
#X obj 140 162 t a a;
#X obj 187 192 print;
#X floatatom 111 286 5 0 0 0 - - -, f 5;
#X obj 131 242 list split 1;
#X floatatom 143 321 5 0 0 0 - - -, f 5;
#X obj 176 270 list split 1;
#X obj 225 346 text search preps;
#X obj 221 371 != -1;
#X obj 221 395 tgl 15 0 empty empty empty 17 7 0 10 -262144 -1 -1 0
1;
#X msg 159 72 9 bang;
#X floatatom 274 385 5 0 0 0 - - -, f 5;
#X floatatom 226 39 5 0 0 0 - - -, f 5;
#X msg 226 62 \$1 bang;
#X obj 356 367 != -1;
#X obj 356 391 tgl 15 0 empty empty empty 17 7 0 10 -262144 -1 -1 0
1;
#X floatatom 409 381 5 0 0 0 - - -, f 5;
#X obj 235 320 t a a;
#X symbolatom 234 297 10 0 0 0 - - -, f 10;
#X obj 360 342 text search iverb;
#X obj 140 137 clone _getword 500;
#X connect 0 0 24 1;
#X connect 1 0 24 0;
#X connect 2 0 3 0;
#X connect 3 0 4 0;
#X connect 5 0 8 0;
#X connect 5 1 6 0;
#X connect 8 0 7 0;
#X connect 8 1 10 0;
#X connect 10 0 9 0;
#X connect 10 1 22 0;
#X connect 11 0 12 0;
#X connect 11 0 15 0;
#X connect 12 0 13 0;
#X connect 14 0 24 0;
#X connect 16 0 17 0;
#X connect 17 0 24 0;
#X connect 18 0 19 0;
#X connect 21 0 11 0;
#X connect 21 1 23 0;
#X connect 22 0 21 0;
#X connect 23 0 18 0;
#X connect 23 0 20 0;
#X connect 24 0 5 0;
#X restore 277 50 pd getword;
#N canvas 0 23 450 300 texts 0;
#X obj 47 88 text define word;
#X obj 3 16 loadbang;
#X msg 47 55 read -c litrev-freq;
#X msg 34 140 read -c ../getwiki/List_of_English_prepositions;
#X obj 34 164 text define preps;
#X msg 18 219 read -c ../getwiki/List_of_English_irregular_verbs;
#X obj 18 243 text define iverb;
#X connect 1 0 2 0;
#X connect 1 0 3 0;
#X connect 1 0 5 0;
#X connect 2 0 0 0;
#X connect 3 0 4 0;
#X connect 5 0 6 0;
#X restore 274 24 pd texts;
