#N canvas 539 50 465 300 12;
#X declare -lib timbreIDLib;
#N canvas 0 23 450 300 texts 0;
#X obj 28 67 text define word;
#X obj 11 221 text define iverb;
#X msg 25 141 read -c ../getwiki/preps;
#X msg 11 197 read -c ../getwiki/iverbs;
#X obj 220 42 text size word;
#X obj 103 114 b;
#X msg 28 43 read -c litrev-freq \, bang;
#N canvas 0 22 450 300 fill 0;
#X obj 90 191 t b a;
#X obj 90 215 fd_listout;
#X obj 90 239 t a b;
#X msg 130 238 1e+10;
#X msg 90 81 for and nor but or yet so, f 7;
#X obj 90 263 text set;
#X msg 210 175 symbol \$1;
#X connect 0 0 1 0;
#X connect 0 1 1 1;
#X connect 1 0 2 0;
#X connect 2 0 5 0;
#X connect 2 1 3 0;
#X connect 3 0 5 1;
#X connect 4 0 0 0;
#X connect 6 0 5 3;
#X restore 221 192 pd fill finite -k texts;
#X obj 220 223 text define -k article;
#A set a \; an \; the \;;
#X obj 220 245 text define -k pronoun;
#A set I \; you \; he \; she \; it \; we \; they \; this \; these \;
that \; those \; former \; latter \; who \; which \; when \;;
#X obj 220 266 text define -k conjunc;
#A set for \; and \; nor \; but \; or \; yet \; so \;;
#X obj 25 165 text define prep;
#N canvas 0 22 450 300 _totnum_word 0;
#X msg 75 137 line 0 \, auto;
#X obj 75 161 text sequence word;
#X obj 75 185 list split 1;
#X obj 75 211 fd_sum;
#X obj 75 113 t b b f;
#X obj 43 87 t b f;
#X obj 43 211 f;
#X obj 43 235 s _totnum_word;
#X obj 43 63 r _gettotnum;
#X connect 0 0 1 0;
#X connect 1 0 2 0;
#X connect 2 0 3 0;
#X connect 3 0 6 1;
#X connect 4 0 0 0;
#X connect 4 1 3 1;
#X connect 5 0 6 0;
#X connect 5 1 4 0;
#X connect 6 0 7 0;
#X connect 8 0 5 0;
#X restore 221 16 pd _totnum_word;
#X msg 220 65 \; pd-_getword_ clear \, obj 10 10 r _getword \, obj
10 40 clone _getword \$1 \, obj 10 80 s _gotword \, connect 0 0 1 0
\, connect 1 0 2 0 \; _getword_ptr symbol word \; _gettotnum \$1,
f 26;
#N canvas 0 22 450 300 word_to_get 0;
#X obj 41 176 text define word_to_get;
#X obj 41 50 fd_iterate;
#X obj 41 74 t f f;
#X obj 41 98 text set word_to_get;
#X obj 41 26 r _gettotnum;
#X connect 1 0 2 0;
#X connect 2 0 3 0;
#X connect 2 1 3 1;
#X connect 4 0 1 0;
#X restore 334 15 pd word_to_get;
#X obj 10 259 text define final;
#X obj 12 15 bng 15 250 50 0 empty empty empty 17 7 0 10 -262144 -1
-1;
#X obj 38 11 loadbang;
#X obj 101 10 r reload_texts;
#X connect 0 0 5 0;
#X connect 2 0 11 0;
#X connect 3 0 1 0;
#X connect 4 0 13 0;
#X connect 5 0 4 0;
#X connect 6 0 0 0;
#X connect 16 0 6 0;
#X connect 16 0 2 0;
#X connect 16 0 3 0;
#X connect 17 0 16 0;
#X connect 18 0 16 0;
#X restore 198 38 pd texts;
#N canvas 0 22 450 300 _getword_ 0;
#X obj 10 10 r _getword;
#X obj 10 40 clone _getword 5497;
#X obj 10 80 s _gotword;
#X connect 0 0 1 0;
#X connect 1 0 2 0;
#X restore 198 62 pd _getword_;
#X obj 197 15 declare -lib timbreIDLib;
#N canvas 400 86 643 565 wprobs 0;
#X obj 100 220 cnv 15 150 169 empty empty art_iverb_prep_conc_pron_nsv
5 10 0 8 -233017 -1 0;
#X obj 109 252 vsl 15 128 0 1 0 0 wprob-0 wprob-0-set empty 0 -9 0
10 -262144 -1 -1 1389 1;
#X msg 435 200 bang \; wprobs \$1 \$2;
#X obj 129 252 vsl 15 128 0 1 0 0 wprob-1 wprob-1-set empty 0 -9 0
10 -262144 -1 -1 2792 1;
#X obj 149 252 vsl 15 128 0 1 0 0 wprob-2 wprob-2-set empty 0 -9 0
10 -262144 -1 -1 4273 1;
#X obj 169 252 vsl 15 128 0 1 0 0 wprob-3 wprob-3-set empty 0 -9 0
10 -262144 -1 -1 2285 1;
#X obj 189 252 vsl 15 128 0 1 0 0 wprob-4 wprob-4-set empty 0 -9 0
10 -262144 -1 -1 1945 1;
#X obj 209 252 vsl 15 128 0 1 0 0 wprob-5 wprob-5-set empty 0 -9 0
10 -262144 -1 -1 15 1;
#X obj 436 238 t b b;
#X obj 436 341 array get wprobs;
#X obj 468 284 tabletool wprobs;
#X msg 468 262 normalize_sum;
#X obj 228 368 bng 15 250 50 0 wprob_click wprob_click-set empty 17
7 0 10 -262144 -1 -1;
#X obj 101 483 array define -k wprobs 7;
#A 0 0.102362 0.21986 0.336452 0.179939 0.153177 0.00120702 0;
#X obj 34 22 r wprob-0;
#X obj 34 87 r wprob-1;
#X obj 178 21 r wprob-2;
#X obj 179 86 r wprob-3;
#X obj 322 19 r wprob-4;
#X obj 325 85 r wprob-5;
#X msg 101 461 click 1 1 1 1 1;
#X msg 436 366 \; wprob-0-set set \$1 \; wprob-1-set set \$2 \; wprob-2-set
set \$3 \; wprob-3-set set \$4 \; wprob-4-set set \$5 \; wprob-5-set
set \$6;
#X msg 34 49 \; _wprob_update 0 \$1;
#X msg 34 114 \; _wprob_update 1 \$1;
#X msg 178 48 \; _wprob_update 2 \$1;
#X msg 179 113 \; _wprob_update 3 \$1;
#X msg 322 46 \; _wprob_update 4 \$1;
#X msg 325 112 \; _wprob_update 5 \$1;
#X obj 435 175 r _wprob_update;
#X obj 228 350 bng 15 250 50 0 _wprob_randomize _wprob_randomize-set
empty 17 7 0 10 -262144 -1 -1;
#X msg 279 249 0 \, 1 \, 2 \, 3 \, 4 \, 5;
#X obj 279 273 t b f;
#X obj 279 297 random 100;
#X obj 279 321 / 100;
#X obj 279 345 list prepend;
#X obj 279 369 s _wprob_update;
#X obj 280 225 r _wprob_randomize;
#X obj 448 314 loadbang;
#X obj 101 435 r wprob_click;
#X connect 2 0 8 0;
#X connect 8 0 9 0;
#X connect 8 1 11 0;
#X connect 9 0 21 0;
#X connect 11 0 10 0;
#X connect 14 0 22 0;
#X connect 15 0 23 0;
#X connect 16 0 24 0;
#X connect 17 0 25 0;
#X connect 18 0 26 0;
#X connect 19 0 27 0;
#X connect 20 0 13 0;
#X connect 28 0 2 0;
#X connect 30 0 31 0;
#X connect 31 0 32 0;
#X connect 31 1 34 1;
#X connect 32 0 33 0;
#X connect 33 0 34 0;
#X connect 34 0 35 0;
#X connect 36 0 30 0;
#X connect 37 0 9 0;
#X connect 38 0 20 0;
#X coords 0 -1 1 1 150 169 1 100 220;
#X restore 19 14 pd wprobs;
#N canvas 422 207 974 725 getit 0;
#X obj 546 233 list split 1;
#X obj 385 583 s _getword;
#X obj 546 201 r _gotword;
#X msg 385 559 \$1 bang;
#X obj 586 256 list split 1;
#X obj 586 281 sel -1;
#X obj 89 245 route float symbol;
#X obj 49 157 text get word;
#X obj 49 222 list split 1;
#X obj 150 386 list split 1;
#X obj 150 412 text search;
#X obj 150 436 != -1;
#X obj 150 460 change;
#X obj 150 485 sel 1;
#X msg 150 531 1;
#X msg 193 531 0;
#X obj 49 550 f;
#X obj 49 572 sel;
#X obj 49 133 t f f;
#X obj 150 508 t b b, f 11;
#X msg 150 295 \$1 iverb \, \$1 prep \, \$1 conjunc \, \$1 pronoun
\, \$1 article, f 18;
#X obj 242 382 f;
#X obj 242 406 + 1;
#X obj 242 430 mod 5;
#X obj 242 454 t f f;
#X obj 150 363 t a b;
#X obj 325 255 /;
#X obj 343 232 r _totnum_word;
#X obj 49 504 b;
#X obj 49 191 t a a;
#X obj 325 210 list split 1;
#X obj 224 615 int;
#X obj 224 639 tabread wprobs;
#X msg 49 596 5;
#X obj 385 336 +;
#X obj 385 432 random 1000;
#X obj 385 360 * 1000;
#X obj 385 384 int;
#X obj 385 408 t b f;
#X obj 385 509 f;
#X obj 385 533 t f f;
#X obj 586 315 f;
#X obj 586 379 text delete word_to_get;
#X obj 49 109 text get word_to_get;
#X obj 49 33 inlet;
#X obj 49 81 random;
#X obj 98 83 text size word_to_get;
#X obj 774 621 outlet;
#X obj 385 480 sel 1 0;
#X obj 701 415 route float;
#X obj 424 59 sel;
#X obj 424 35 random 100;
#X msg 425 82 \; _wprob_randomize-set bang;
#X obj 49 57 t b b b, f 17;
#X obj 385 456 >;
#X obj 586 339 text search word_to_get;
#X floatatom 232 125 5 0 0 0 - - -, f 5;
#X obj 232 148 sel 0;
#X obj 232 172 s stop;
#X obj 150 269 t a b;
#X obj 865 215 outlet;
#X connect 0 1 4 0;
#X connect 2 0 0 0;
#X connect 3 0 1 0;
#X connect 4 0 5 0;
#X connect 4 1 49 0;
#X connect 5 0 41 0;
#X connect 6 1 59 0;
#X connect 7 0 29 0;
#X connect 8 0 28 0;
#X connect 8 1 6 0;
#X connect 9 0 10 0;
#X connect 9 1 10 1;
#X connect 10 0 11 0;
#X connect 11 0 12 0;
#X connect 12 0 13 0;
#X connect 13 0 19 0;
#X connect 14 0 16 1;
#X connect 15 0 16 1;
#X connect 16 0 17 0;
#X connect 17 0 33 0;
#X connect 18 0 7 0;
#X connect 18 1 39 1;
#X connect 19 0 14 0;
#X connect 19 1 31 0;
#X connect 20 0 25 0;
#X connect 21 0 22 0;
#X connect 22 0 23 0;
#X connect 23 0 24 0;
#X connect 24 0 31 1;
#X connect 24 1 21 1;
#X connect 25 0 9 0;
#X connect 25 1 21 0;
#X connect 26 0 34 1;
#X connect 27 0 26 1;
#X connect 28 0 16 0;
#X connect 29 0 8 0;
#X connect 29 1 30 0;
#X connect 30 0 26 0;
#X connect 31 0 32 0;
#X connect 32 0 34 0;
#X connect 33 0 31 0;
#X connect 34 0 36 0;
#X connect 35 0 54 0;
#X connect 36 0 37 0;
#X connect 37 0 38 0;
#X connect 38 0 35 0;
#X connect 38 1 35 1;
#X connect 39 0 40 0;
#X connect 40 0 3 0;
#X connect 40 1 41 1;
#X connect 41 0 55 0;
#X connect 43 0 18 0;
#X connect 44 0 53 0;
#X connect 45 0 43 0;
#X connect 46 0 45 1;
#X connect 46 0 56 0;
#X connect 48 0 39 0;
#X connect 49 1 47 0;
#X connect 50 0 52 0;
#X connect 51 0 50 0;
#X connect 53 0 45 0;
#X connect 53 1 46 0;
#X connect 54 0 48 0;
#X connect 55 0 42 0;
#X connect 56 0 57 0;
#X connect 57 0 58 0;
#X connect 57 1 60 0;
#X connect 59 0 20 0;
#X connect 59 1 15 0;
#X restore 328 144 pd getit;
#N canvas 688 300 538 505 makephrase 0;
#X obj 387 407 text set final;
#X obj 53 21 inlet;
#X obj 53 76 random 100;
#X obj 53 163 random 100;
#X obj 53 188 moses 12;
#X obj 119 188 moses 40;
#X obj 53 49 t b a, f 35;
#X obj 53 139 bang;
#X obj 271 242 list;
#X obj 364 338 list store;
#X obj 376 215 t b b;
#X obj 376 309 t b b;
#X obj 271 119 b;
#X msg 200 319 append .;
#X msg 53 319 append \\\,;
#X msg 125 319 append \\\;;
#X msg 271 319 append \$1;
#X obj 364 363 t b a b;
#X obj 364 430 outlet;
#X msg 418 384 1e+19;
#X obj 271 266 t a a;
#X obj 271 290 spigot;
#X obj 314 267 list length;
#X obj 206 90 moses 20;
#X connect 1 0 6 0;
#X connect 2 0 23 0;
#X connect 3 0 4 0;
#X connect 4 0 14 0;
#X connect 4 1 5 0;
#X connect 5 0 15 0;
#X connect 5 1 13 0;
#X connect 6 0 2 0;
#X connect 6 1 8 1;
#X connect 7 0 3 0;
#X connect 8 0 20 0;
#X connect 9 0 17 0;
#X connect 10 0 11 0;
#X connect 10 1 8 0;
#X connect 11 0 9 1;
#X connect 11 1 9 0;
#X connect 12 0 8 0;
#X connect 13 0 9 0;
#X connect 14 0 9 0;
#X connect 15 0 9 0;
#X connect 16 0 9 0;
#X connect 17 0 18 0;
#X connect 17 1 0 0;
#X connect 17 2 19 0;
#X connect 19 0 0 1;
#X connect 20 0 21 0;
#X connect 20 1 22 0;
#X connect 21 0 16 0;
#X connect 22 0 21 1;
#X connect 23 0 10 0;
#X connect 23 1 12 0;
#X restore 328 189 pd makephrase;
#X obj 328 83 tgl 15 0 empty empty empty 17 7 0 10 -262144 -1 -1 0
1;
#X floatatom 140 192 5 0 0 0 - - -, f 5;
#X obj 120 220 f;
#X obj 120 193 bng 15 250 50 0 empty empty empty 17 7 0 10 -262144
-1 -1;
#X msg 120 245 \; final write ./test-\$1;
#X msg 19 202 \; final clear;
#X msg 19 245 \; final click;
#X obj 328 225 counter;
#X floatatom 328 249 5 0 0 0 - - -, f 5;
#X obj 328 102 metro 1;
#X msg 388 212 0;
#X floatatom 374 75 5 0 0 0 - - -, f 5;
#X msg 182 94 \; reload_texts bang;
#X obj 387 40 r stop;
#X msg 339 55 0;
#X floatatom 397 152 5 0 0 0 - - -, f 5;
#X floatatom 192 191 5 0 0 0 - - -, f 5;
#X obj 192 167 r wprob-5;
#X obj 214 140 text define ww;
#X msg 399 100 bang;
#X obj 398 122 until;
#X connect 4 0 5 0;
#X connect 4 1 21 0;
#X connect 5 0 13 0;
#X connect 6 0 15 0;
#X connect 7 0 8 1;
#X connect 8 0 10 0;
#X connect 9 0 8 0;
#X connect 13 0 14 0;
#X connect 16 0 13 0;
#X connect 17 0 15 1;
#X connect 19 0 26 1;
#X connect 20 0 6 0;
#X connect 23 0 22 0;
#X connect 25 0 26 0;
#X connect 26 0 4 0;
